# xmcd
#
# Track frame offsets:
#	150
#	17621
#	34484
#	48316
#	65747
#	81679
#	94429
#	109810
#	125064
#	142363
#	156636
#	172362
#	188431
#
# Disc length: 2793 seconds
#
# Revision: 1
# Processed by: cddbd v1.5.2PL0 Copyright (c) Steve Scherf et al.
# Submitted via: audiograbber 1.83.01
#
DISCID=d10ae70d
DTITLE=Dierks Bentley - Dierks Bentley
DYEAR=2003
DGENRE=Country
TTITLE0=What Was I Thinkin'
TTITLE1=Wish It Would Break
TTITLE2=Forget About You
TTITLE3=I Can Only Think of One
TTITLE4=My Last Name
TTITLE5=Bartenders, Etc...
TTITLE6=Is Anybody Loving You These Days
TTITLE7=My Love Will Follow You
TTITLE8=How Am I Doin'
TTITLE9=Distant Shore
TTITLE10=I Bought the Shoes
TTITLE11=Whiskey Tears
TTITLE12=Train Travelin'
EXTD=
EXTT0=
EXTT1=
EXTT2=
EXTT3=
EXTT4=
EXTT5=
EXTT6=
EXTT7=
EXTT8=
EXTT9=
EXTT10=
EXTT11=
EXTT12=
PLAYORDER=
